# xmcd
#
# Track frame offsets: 
#        150
#        14395
#        38237
#        53660
#        69972
#        84295
#        96675
#        114992
#        148770
#        168470
#
# Disc length: 2345 seconds
#
# Revision: 2
# Processed by: cddbd v1.5.2PL0 Copyright (c) Steve Scherf et al.
# Submitted via: ExactAudioCopy v0.99pb5
#
DISCID=8009270a
DTITLE=Charlie Musselwhite - Where Have All The Good Times Gone ?
DYEAR=1992
DGENRE=Blues
TTITLE0=Hello Stranger
TTITLE1=Seemed Like The Whole World Was Crying
TTITLE2=Baby-O
TTITLE3=Still A Stranger
TTITLE4=Kid Man Blues
TTITLE5=I'll Get A Break Some Day
TTITLE6=Stretching Out
TTITLE7=Where Have All The Goodtimes Gone
TTITLE8=Going Away Baby
TTITLE9=Exodus
EXTD=
EXTT0=
EXTT1=
EXTT2=
EXTT3=
EXTT4=
EXTT5=
EXTT6=
EXTT7=
EXTT8=
EXTT9=
PLAYORDER=
